PathFileType	4	(X/Y/Z)	/Users/itak/Documents/Research/Walk-IL/dataset/trc/00387_00012.trc
DataRate	CameraRate	NumFrames	NumMarkers	Units	OrigDataRate	OrigDataStartFrame	OrigNumFrames
100.000000	100.000000	4	56	mm	100.000000	74	593
Frame#	Time	RPSI			LPSI			L3			STRN			T10			C7			CLAV			RBAK			LBAK			LSHO			LUPA			LAEL			LAOL			LWTS			LWPS			LFRA			LIFD			LHPS			LHTS			RSHO			RUPA			RAEL			RAOL			RWTS			RWPS			RFRA			RIFD			RHTS			RHPS			RBHD			LFHD			RFHD			LBHD			RASI			LKNE			LTHI			LANK			LTIP			LTOE			LMT1			LMT5			LHEE			RKNE			RANK			RTIP			RTOE			RMT1			RMT5			RHEE			LASI			LHIP			RHIP			RTHI			*53			*54			*55			
		X1	Y1	Z1	X2	Y2	Z2	X3	Y3	Z3	X4	Y4	Z4	X5	Y5	Z5	X6	Y6	Z6	X7	Y7	Z7	X8	Y8	Z8	X9	Y9	Z9	X10	Y10	Z10	X11	Y11	Z11	X12	Y12	Z12	X13	Y13	Z13	X14	Y14	Z14	X15	Y15	Z15	X16	Y16	Z16	X17	Y17	Z17	X18	Y18	Z18	X19	Y19	Z19	X20	Y20	Z20	X21	Y21	Z21	X22	Y22	Z22	X23	Y23	Z23	X24	Y24	Z24	X25	Y25	Z25	X26	Y26	Z26	X27	Y27	Z27	X28	Y28	Z28	X29	Y29	Z29	X30	Y30	Z30	X31	Y31	Z31	X32	Y32	Z32	X33	Y33	Z33	X34	Y34	Z34	X35	Y35	Z35	X36	Y36	Z36	X37	Y37	Z37	X38	Y38	Z38	X39	Y39	Z39	X40	Y40	Z40	X41	Y41	Z41	X42	Y42	Z42	X43	Y43	Z43	X44	Y44	Z44	X45	Y45	Z45	X46	Y46	Z46	X47	Y47	Z47	X48	Y48	Z48	X49	Y49	Z49	X50	Y50	Z50	X51	Y51	Z51	X52	Y52	Z52	X53	Y53	Z53	X54	Y54	Z54	X55	Y55	Z55	X56	Y56	Z56	

75	0.74	1028.355346679688	980.4500732421875	-13.07194137573242	1021.498168945312	971.6685791015625	-144.0996856689453	1029.800170898438	1045.173828125	-77.50542449951172	1262.691162109375	1207.865478515625	-73.74476623535156	1018.702758789062	1147.916748046875	-84.08107757568359	1048.314331054688	1398.368530273438	-98.35137176513672	1206.380859375	1324.957885742188	-80.37748718261719	1004.599548339844	1252.340209960938	-29.32649803161621	1040.021240234375	1358.603149414062	-200.4385375976562	1130.019653320312	1375.076782226562	-246.0959014892578	1112.160522460938	1256.480224609375	-314.78564453125	1143.04443359375	1059.17626953125	-330.7611999511719	1078.060668945312	1037.779052734375	-278.8226928710938	1238.633178710938	854.4429931640625	-261.5574340820312	1200.824951171875	834.2608032226562	-332.0760192871094	1166.797485351562	955.231201171875	-332.5289916992188	1251.664672851562	676.167236328125	-258.3840637207031	1219.673706054688	750.98681640625	-318.5459594726562	1266.521850585938	759.6665649414062	-275.0857543945312	1096.682006835938	1383.376220703125	64.57024383544922	1081.4951171875	1318.558471679688	124.5081481933594	1099.966918945312	1058.004760742188	169.8715057373047	1078.225708007812	1043.535888671875	80.06723022460938	1234.534423828125	848.4674072265625	133.8085174560547	1199.915283203125	837.4724731445312	198.477294921875	1130.395141601562	994.0947265625	185.5019073486328	1244.778686523438	676.2977294921875	142.1787414550781	1261.015014648438	746.4953002929688	154.580078125	1207.784301757812	748.196533203125	199.2784271240234	1062.455810546875	1585.712890625	-35.50228500366211	1248.594604492188	1597.846435546875	-104.4032211303711	1190.654663085938	1605.052978515625	4.661575317382812	1124.291870117188	1575.419677734375	-183.2201232910156	1243.74072265625	964.3309936523438	46.71302795410156	1127.038330078125	464.6395263671875	-237.5211791992188	1129.523559570312	607.3412475585938	-248.2990875244141	1023.909545898438	31.69406890869141	-197.8826599121094	1070.860473632812	236.1843414306641	-230.77783203125	1237.276489257812	32.26735687255859	-130.8143615722656	1156.673583984375	34.13388061523438	-101.9809112548828	1151.55517578125	29.03692626953125	-206.9163970947266	984.448486328125	29.28574752807617	-142.3547821044922	1129.08544921875	467.0736694335938	82.60765838623047	1063.65576171875	45.59378814697266	52.0984992980957	1131.214233398438	340.5957946777344	67.1036376953125	1236.563720703125	26.5062198638916	-28.73980903625488	1157.805053710938	33.33369827270508	-49.61633682250977	1148.177978515625	36.1377067565918	49.56311416625977	986.2073974609375	32.82349014282227	4.714905738830566	1228.259155273438	957.5029296875	-217.5425872802734	1112.455078125	956.3225708007812	-255.9564361572266	1110.868896484375	954.5169067382812	102.5443725585938	1179.423706054688	729.66943359375	105.2107620239258	nan	nan	nan	nan	nan	nan	nan	nan	nan	
76	0.75	1028.323486328125	980.4133911132812	-12.96121120452881	1021.44287109375	971.6721801757812	-144.0005645751953	1029.726196289062	1045.161987304688	-77.40658569335938	1262.59912109375	1207.876708984375	-73.70105743408203	1018.665954589844	1147.9111328125	-83.98623657226562	1048.152709960938	1398.3212890625	-98.27944183349609	1206.265869140625	1324.990478515625	-80.375	1004.521789550781	1252.327270507812	-29.25912284851074	1039.882934570312	1358.607299804688	-200.4056396484375	1129.900268554688	1375.100341796875	-246.0493469238281	1112.056030273438	1256.507202148438	-314.7421264648438	1142.867553710938	1059.16064453125	-330.6680603027344	1077.918579101562	1037.789184570312	-278.7621765136719	1238.53369140625	854.47607421875	-261.5055541992188	1200.732666015625	834.2866821289062	-332.0402221679688	1166.64306640625	955.2388305664062	-332.469482421875	1251.623291015625	676.122314453125	-258.3440856933594	1219.567016601562	751.0086669921875	-318.4905395507812	1266.43017578125	759.6813354492188	-275.0163879394531	1096.52783203125	1383.336181640625	64.62891387939453	1081.42626953125	1318.526123046875	124.5742263793945	1099.93701171875	1057.969604492188	169.9426422119141	1078.109741210938	1043.48046875	80.14134979248047	1234.580810546875	848.5084838867188	133.7969970703125	1199.9990234375	837.492431640625	198.4706726074219	1130.37255859375	994.0596923828125	185.5341033935547	1245.0283203125	676.3753051757812	142.1470184326172	1261.191040039062	746.5909423828125	154.5806732177734	1208.10546875	748.2514038085938	199.3016052246094	1062.284301757812	1585.731079101562	-35.40886688232422	1248.475463867188	1597.873168945312	-104.3874969482422	1190.564453125	1604.992309570312	4.781726360321045	1124.08740234375	1575.443115234375	-183.0884552001953	1243.634155273438	964.2902221679688	46.7614860534668	1126.985961914062	464.6492614746094	-237.4983215332031	1129.436767578125	607.3560180664062	-248.2619781494141	1023.910949707031	31.69364738464355	-197.8814392089844	1070.8125	236.1939849853516	-230.7497406005859	1237.270629882812	32.25785064697266	-130.8078765869141	1156.675537109375	34.13602066040039	-101.9786376953125	1151.558227539062	29.04087829589844	-206.9157562255859	984.4459838867188	29.28347206115723	-142.3415222167969	1129.057861328125	467.0681457519531	82.66807556152344	1063.648803710938	45.57987213134766	52.08905410766602	1131.176879882812	340.5885925292969	67.13790130615234	1236.548095703125	26.5168342590332	-28.73636245727539	1157.800537109375	33.33505249023438	-49.60765075683594	1148.173828125	36.14352416992188	49.56279754638672	986.1873779296875	32.81978988647461	4.727540016174316	1228.124267578125	957.481201171875	-217.472900390625	1112.4697265625	956.3238525390625	-255.8832702636719	1110.8984375	954.4850463867188	102.6407012939453	1179.380126953125	729.6297607421875	105.2306442260742	nan	nan	nan	nan	nan	nan	nan	nan	nan	
77	0.76	1028.276733398438	980.3627319335938	-12.84666442871094	1021.372802734375	971.6660766601562	-143.9046173095703	1029.631958007812	1045.15380859375	-77.30733489990234	1262.499145507812	1207.87646484375	-73.66168975830078	1018.582153320312	1147.911254882812	-83.89298248291016	1047.991821289062	1398.282592773438	-98.21657562255859	1206.148681640625	1325.022094726562	-80.37420654296875	1004.471862792969	1252.310791015625	-29.19083595275879	1039.732788085938	1358.613159179688	-200.3714447021484	1129.772583007812	1375.125122070312	-246.0062713623047	1111.949951171875	1256.53466796875	-314.7079467773438	1142.682373046875	1059.138916015625	-330.5752868652344	1077.766845703125	1037.804321289062	-278.7146606445312	1238.419067382812	854.5003051757812	-261.4456176757812	1200.638916015625	834.3165893554688	-332.0130920410156	1166.4775390625	955.255615234375	-332.4232482910156	1251.571411132812	676.0791625976562	-258.293212890625	1219.44970703125	751.0374755859375	-318.440185546875	1266.345703125	759.7175903320312	-274.9709777832031	1096.370483398438	1383.289306640625	64.68464660644531	1081.348999023438	1318.49072265625	124.642333984375	1099.898071289062	1057.932373046875	169.9976043701172	1077.98486328125	1043.41796875	80.19990539550781	1234.615966796875	848.539794921875	133.7812042236328	1200.058715820312	837.5003662109375	198.4568786621094	1130.346801757812	994.0220947265625	185.5587005615234	1245.245727539062	676.4406127929688	142.1071014404297	1261.33154296875	746.66748046875	154.5676574707031	1208.37646484375	748.290283203125	199.3058319091797	1062.117553710938	1585.742919921875	-35.31954193115234	1248.354614257812	1597.891845703125	-104.3571853637695	1190.432983398438	1604.919799804688	4.918757438659668	1123.87109375	1575.463623046875	-182.9490661621094	1243.550415039062	964.2611694335938	46.79504013061523	1126.929565429688	464.6567077636719	-237.4767761230469	1129.35205078125	607.36572265625	-248.2258911132812	1023.912963867188	31.69360733032227	-197.88037109375	1070.765380859375	236.2003021240234	-230.7205352783203	1237.268188476562	32.25609588623047	-130.8057098388672	1156.677001953125	34.13704681396484	-101.9771423339844	1151.56103515625	29.04305839538574	-206.9157409667969	984.4446411132812	29.28250885009766	-142.3311767578125	1129.041137695312	467.0655822753906	82.73638153076172	1063.629028320312	45.57587051391602	52.05404663085938	1131.143188476562	340.5812377929688	67.17282867431641	1236.53125	26.52887153625488	-28.73380661010742	1157.79443359375	33.33549880981445	-49.60015869140625	1148.171752929688	36.14779663085938	49.56708526611328	986.15869140625	32.81697463989258	4.741268157958984	1228.031494140625	957.5599975585938	-217.4695129394531	1112.516845703125	956.3871459960938	-255.848876953125	1110.927978515625	954.467041015625	102.7342224121094	1179.360107421875	729.602294921875	105.2352142333984	nan	nan	nan	nan	nan	nan	nan	nan	nan	
78	0.77	1028.210571289062	980.2982788085938	-12.7321662902832	1021.285095214844	971.652099609375	-143.8123779296875	1029.508544921875	1045.148315429688	-77.21000671386719	1262.386962890625	1207.8623046875	-73.62388610839844	1018.421630859375	1147.918579101562	-83.80289459228516	1047.828735351562	1398.25341796875	-98.15821075439453	1206.029296875	1325.050903320312	-80.37255096435547	1004.449401855469	1252.291015625	-29.11617088317871	1039.573120117188	1358.620849609375	-200.3352813720703	1129.633666992188	1375.150390625	-245.9678649902344	1111.83935546875	1256.560302734375	-314.6793518066406	1142.497314453125	1059.115234375	-330.4878234863281	1077.608764648438	1037.826049804688	-278.6827087402344	1238.29150390625	854.5162963867188	-261.3801574707031	1200.54541015625	834.3496704101562	-331.9936218261719	1166.30419921875	955.2805786132812	-332.3901672363281	1251.512451171875	676.0482177734375	-258.236328125	1219.3271484375	751.0681762695312	-318.3963012695312	1266.267700195312	759.775390625	-274.9506225585938	1096.209228515625	1383.238037109375	64.73575592041016	1081.259643554688	1318.45263671875	124.7130661010742	1099.85400390625	1057.89453125	170.0383605957031	1077.84375	1043.355834960938	80.24248504638672	1234.639526367188	848.5618896484375	133.7613525390625	1200.098876953125	837.498046875	198.4377136230469	1130.318481445312	993.98388671875	185.5761108398438	1245.416870117188	676.4896850585938	142.0534057617188	1261.435546875	746.7241821289062	154.5390930175781	1208.580444335938	748.3117065429688	199.2896423339844	1061.956787109375	1585.747802734375	-35.23228454589844	1248.2294921875	1597.900756835938	-104.3098754882812	1190.25439453125	1604.837890625	5.070855140686035	1123.64599609375	1575.482421875	-182.8037414550781	1243.485717773438	964.2410278320312	46.81691360473633	1126.869506835938	464.661865234375	-237.4559936523438	1129.269653320312	607.3709106445312	-248.1905059814453	1023.915222167969	31.69398307800293	-197.8794555664062	1070.720825195312	236.2048950195312	-230.6912994384766	1237.269653320312	32.26198959350586	-130.8076782226562	1156.67822265625	34.13668441772461	-101.9764022827148	1151.562377929688	29.04256439208984	-206.9164886474609	984.4439697265625	29.28108787536621	-142.3279724121094	1129.033447265625	467.0657653808594	82.80942535400391	1063.599975585938	45.57763671875	51.99786376953125	1131.11279296875	340.5735473632812	67.20797729492188	1236.515258789062	26.54101943969727	-28.73240089416504	1157.788208007812	33.3350944519043	-49.59443664550781	1148.172119140625	36.15009689331055	49.57505416870117	986.1265258789062	32.81318283081055	4.756072998046875	1227.984130859375	957.7454223632812	-217.53515625	1112.601684570312	956.5305786132812	-255.8648223876953	1110.952758789062	954.4611206054688	102.8283309936523	1179.3583984375	729.583251953125	105.2288055419922	nan	nan	nan	nan	nan	nan	nan	nan	nan	
